<?xml version="1.0" standalone="no"?>
<!DOCTYPE svg PUBLIC "-//W3C//DTD SVG 20010904//EN"
 "http://www.w3.org/TR/2001/REC-SVG-20010904/DTD/svg10.dtd">
<svg version="1.0" xmlns="http://www.w3.org/2000/svg"
 width="980.000000pt" height="980.000000pt" viewBox="0 0 980.000000 980.000000"
 preserveAspectRatio="xMidYMid meet">

<g transform="translate(0.000000,980.000000) scale(0.100000,-0.100000)"
fill="#000000" stroke="none">
<path d="M3558 8430 c-999 -3 -1818 -7 -1821 -10 -21 -24 -27 -64 -27 -195 0
-190 -1 -189 156 -199 148 -10 333 -41 417 -71 39 -13 75 -21 80 -18 6 3 7 2
4 -4 -4 -6 16 -24 43 -42 87 -56 142 -139 181 -272 19 -65 22 -107 26 -331 l5
-258 -26 0 c-51 0 -126 -55 -110 -81 4 -7 3 -10 -3 -6 -10 6 -43 -64 -43 -91
0 -7 -4 -12 -10 -12 -5 0 -10 6 -10 13 0 25 -52 117 -62 110 -7 -3 -8 -1 -4 6
10 15 -13 43 -27 34 -6 -4 -7 -1 -2 6 4 8 -5 26 -26 47 -30 31 -58 47 -44 25
3 -5 1 -12 -4 -15 -4 -3 -8 4 -7 17 1 18 -4 22 -24 19 -19 -1 -22 0 -10 8 12
7 7 12 -23 25 -21 9 -52 19 -69 22 l-31 6 32 -47 c68 -99 109 -228 131 -416
10 -89 32 -841 24 -849 -1 -2 -17 2 -35 8 -32 11 -64 0 -68 -24 -4 -32 -14
-47 -21 -35 -6 9 -9 9 -15 0 -4 -6 0 -17 9 -23 8 -7 32 -34 52 -62 20 -27 33
-41 29 -30 -16 42 -28 113 -22 129 7 17 9 17 39 -1 37 -22 42 -36 57 -173 17
-152 66 -364 82 -354 14 8 -4 -30 -19 -42 -12 -8 -9 -15 17 -37 17 -14 31 -30
31 -36 0 -5 5 -13 12 -17 7 -5 8 -3 3 6 -5 9 -4 11 3 6 9 -5 9 -13 1 -27 -10
-19 -13 -17 -62 29 -87 83 -124 112 -131 104 -4 -4 -6 -2 -4 4 4 15 -83 135
-93 129 -4 -3 -11 0 -15 6 -5 8 -3 9 6 4 8 -5 11 -3 8 6 -3 8 -11 13 -17 11
-7 -1 -10 2 -6 8 4 6 -11 39 -32 73 -22 34 -58 96 -81 137 -57 103 -158 246
-172 242 -6 -1 -8 3 -5 9 9 13 -54 81 -68 72 -6 -3 -7 -1 -4 4 6 10 -30 51
-39 46 -2 -2 -4 0 -4 5 0 4 13 7 29 7 16 0 27 -3 25 -7 -6 -10 34 -20 47 -12
7 4 9 3 5 -4 -3 -6 3 -13 14 -17 12 -4 48 -22 81 -41 34 -19 65 -31 70 -28 5
3 8 0 7 -7 -2 -6 3 -14 11 -17 8 -2 11 0 7 6 -3 6 -1 14 5 18 8 4 9 3 5 -4 -4
-7 -1 -12 6 -12 10 0 10 -2 0 -8 -9 -7 -8 -13 7 -26 11 -10 25 -15 32 -10 7 4
10 3 6 -3 -4 -5 7 -23 23 -38 28 -27 31 -28 47 -12 16 15 15 18 -2 36 -9 11
-22 18 -28 14 -5 -3 -7 -1 -3 5 10 16 -78 84 -100 76 -14 -4 -15 -3 -6 4 10 7
8 12 -11 25 -39 25 -98 47 -110 40 -5 -3 -7 -1 -4 4 8 12 -130 49 -219 59 -57
6 -59 6 -41 -12 15 -17 19 -17 28 -4 8 12 9 12 7 -4 -2 -10 3 -21 11 -24 9 -3
11 0 6 9 -5 8 -4 11 1 6 5 -5 9 -12 9 -16 0 -11 136 -156 146 -156 4 0 11 -4
16 -9 5 -5 3 -6 -5 -2 -17 10 -15 -2 7 -32 20 -29 97 -159 120 -204 8 -15 18
-25 22 -22 5 3 7 -1 4 -8 -5 -17 119 -224 132 -221 6 1 10 -5 9 -15 0 -10 6
-16 16 -16 10 1 15 -2 12 -7 -8 -14 36 -70 48 -63 6 4 8 3 5 -3 -3 -5 14 -29
38 -53 37 -36 47 -41 59 -31 13 11 15 10 11 -7 -4 -23 44 -75 66 -70 7 2 13
-1 14 -7 1 -20 17 -36 32 -31 8 3 12 2 9 -3 -8 -12 29 -43 39 -34 4 5 5 3 2
-3 -10 -17 102 -236 115 -228 7 4 8 2 4 -5 -4 -6 0 -18 8 -26 12 -13 15 -55
16 -256 0 -227 -1 -241 -17 -234 -10 4 -26 8 -35 9 -9 0 -16 3 -15 7 3 9 -59
59 -73 59 -9 0 -10 -11 -5 -36 8 -47 36 -105 47 -98 4 3 5 -1 3 -8 -3 -7 9
-35 26 -62 24 -39 33 -46 41 -35 8 11 9 10 4 -5 -6 -19 11 -49 23 -42 4 3 7
-5 7 -16 0 -17 -5 -19 -41 -14 -109 15 -228 18 -286 7 -88 -18 -173 -52 -157
-63 9 -6 5 -7 -10 -3 -14 4 -34 -1 -55 -13 -127 -79 -231 -117 -293 -108 -26
3 -44 2 -44 -4 0 -6 5 -10 12 -10 6 0 8 -3 5 -7 -4 -3 0 -15 10 -25 9 -10 13
-18 8 -18 -4 0 -2 -7 5 -15 11 -13 15 -13 23 -3 6 9 7 8 3 -5 -7 -23 71 -110
92 -102 7 2 11 1 7 -4 -8 -13 52 -54 66 -45 7 4 9 3 6 -3 -8 -13 50 -46 69
-39 8 3 13 2 9 -3 -5 -10 94 -45 157 -56 20 -3 63 -6 95 -6 49 -1 61 -5 83
-29 32 -34 85 -50 168 -50 l63 0 -3 -587 c-4 -576 -4 -590 -27 -668 -42 -147
-124 -255 -240 -313 -33 -16 -57 -33 -53 -38 4 -4 2 -4 -5 0 -6 3 -45 -3 -85
-14 -82 -23 -291 -50 -386 -50 -55 0 -66 -3 -87 -26 -24 -26 -25 -32 -25 -170
0 -143 8 -187 37 -198 8 -3 1363 -6 3011 -6 2851 0 2997 1 3013 17 10 11 25
64 38 143 12 69 30 172 41 230 25 136 167 931 185 1035 8 44 35 195 60 335 25
140 55 307 66 370 11 63 26 147 34 187 16 79 10 114 -24 132 -12 7 -89 11
-189 11 -147 0 -173 -2 -190 -17 -12 -10 -37 -58 -56 -108 -36 -93 -96 -232
-160 -368 -20 -43 -33 -83 -30 -89 4 -7 2 -8 -4 -4 -13 8 -86 -129 -77 -144 3
-5 0 -12 -6 -16 -8 -5 -9 -3 -4 6 5 9 4 11 -3 6 -7 -4 -12 -11 -12 -16 0 -6
-14 -32 -31 -60 -26 -42 -29 -53 -18 -66 8 -10 9 -18 2 -25 -8 -8 -11 -7 -10
2 1 8 -2 14 -8 14 -5 0 -9 -6 -9 -12 1 -7 -2 -10 -7 -8 -4 3 -20 -16 -35 -42
-28 -48 -37 -60 -128 -181 -47 -63 -47 -64 -29 -85 l18 -22 -22 19 c-21 17
-28 15 -24 -7 1 -5 -3 -6 -8 -3 -14 9 -30 -17 -27 -46 2 -15 -1 -25 -6 -22 -5
3 -7 13 -3 22 8 22 -38 -21 -78 -73 l-31 -40 30 25 29 25 -24 -27 c-13 -15
-28 -25 -33 -21 -11 6 -119 -97 -113 -107 2 -4 -8 -18 -23 -31 l-27 -24 24 28
c14 15 20 27 14 27 -16 0 -54 -46 -46 -55 5 -4 2 -5 -5 -1 -18 11 -106 -55
-90 -67 9 -6 7 -7 -6 -3 -11 4 -30 -1 -45 -11 -14 -10 -44 -27 -66 -40 -22
-12 -39 -26 -38 -32 2 -6 -3 -8 -10 -5 -8 3 -36 -6 -63 -20 -27 -14 -62 -30
-77 -35 -17 -7 -25 -15 -21 -23 4 -7 3 -8 -4 -4 -7 4 -56 -10 -109 -30 -108
-40 -142 -51 -283 -88 -414 -108 -1074 -125 -1358 -35 -35 11 -68 17 -74 13
-6 -4 -8 -3 -5 3 4 6 -4 15 -17 21 -28 12 -91 87 -101 120 -3 12 -9 20 -13 18
-20 -12 -19 144 1 276 46 292 39 705 -24 1318 -6 58 -9 224 -7 370 l3 265 37
105 c29 83 34 107 25 120 -10 13 -10 13 4 3 13 -10 18 -7 33 17 9 17 14 35 11
40 -4 6 -2 9 3 8 13 -4 64 60 57 72 -4 6 -3 10 2 9 23 -4 35 2 29 17 -3 9 -2
12 5 8 6 -3 20 3 32 14 12 11 45 32 74 47 43 21 65 25 123 24 39 -1 68 -4 65
-7 -10 -10 17 -31 33 -25 14 4 14 3 3 -5 -12 -9 -13 -13 -1 -26 7 -9 13 -40
13 -69 1 -92 -56 -167 -127 -167 -14 0 -28 5 -31 10 -10 17 -25 11 -19 -7 5
-17 5 -17 -6 0 -6 9 -9 21 -5 26 3 5 1 12 -5 16 -5 3 -10 15 -10 26 0 10 -3
19 -6 19 -14 0 -44 -22 -44 -32 0 -9 3 -9 12 0 7 7 16 12 22 12 5 0 1 -6 -9
-14 -11 -8 -24 -12 -31 -9 -6 2 -24 -24 -39 -59 -23 -51 -29 -77 -29 -133 1
-69 25 -142 43 -130 5 2 8 -3 7 -12 0 -9 18 -30 44 -47 42 -29 50 -31 140 -31
84 0 101 3 145 27 28 14 49 32 47 38 -1 6 3 8 9 4 17 -10 102 85 133 151 37
79 49 144 44 244 -5 91 -35 204 -51 194 -6 -3 -7 -1 -3 6 13 21 -79 161 -103
154 -3 -1 -5 5 -3 14 3 11 -1 14 -13 9 -9 -3 -14 -2 -11 3 8 13 -31 44 -45 35
-8 -4 -10 -3 -5 5 9 15 -97 64 -172 80 -108 23 -271 4 -384 -43 -21 -9 -40
-16 -43 -16 -3 0 -5 86 -5 190 0 110 4 190 9 190 46 0 181 27 255 51 91 30
246 112 246 131 0 5 4 7 9 4 14 -9 165 147 214 221 134 203 169 522 90 843
-32 132 -116 326 -135 314 -7 -4 -8 -3 -4 5 4 6 3 18 -3 25 -8 10 -7 17 6 27
11 10 14 10 9 1 -14 -23 80 -54 180 -59 86 -5 185 4 157 14 -7 2 -15 4 -19 3
-4 -1 -10 4 -14 11 -5 7 -15 9 -26 4 -18 -7 -18 -8 1 -16 34 -14 -105 0 -165
17 -30 9 -79 29 -109 45 -29 16 -58 26 -63 23 -4 -3 -7 -1 -6 4 5 17 -183 214
-199 208 -8 -3 -11 -1 -8 4 7 12 -13 31 -102 96 -36 26 -68 42 -74 38 -7 -4
-9 -3 -5 4 12 20 -212 141 -235 126 -7 -4 -9 -3 -6 2 7 12 -109 56 -218 83
-95 23 -180 33 -281 33 -49 0 -74 4 -74 12 0 15 76 21 240 20 111 -1 152 -6
232 -27 108 -29 294 -113 386 -176 34 -23 62 -39 62 -36 0 11 -168 114 -260
158 -215 104 -455 137 -666 92 l-29 -6 29 24 c20 18 25 26 15 30 -8 3 2 3 21
0 22 -3 30 -1 23 4 -8 6 0 9 25 9 20 1 73 4 117 9 176 17 419 -49 577 -158 16
-10 33 -15 39 -11 7 4 9 3 6 -3 -9 -14 19 -37 34 -27 7 4 9 3 5 -4 -8 -14 50
-55 65 -46 7 4 9 3 5 -4 -7 -11 90 -99 105 -95 5 2 8 -1 6 -7 -3 -14 66 -71
80 -66 7 3 10 -1 7 -8 -6 -15 112 -130 126 -121 5 3 8 0 6 -7 -2 -7 26 -40 62
-73 35 -33 59 -50 53 -37 -6 12 -9 22 -7 22 3 0 13 -14 21 -31 18 -34 132
-112 148 -102 7 4 4 11 -7 17 -10 6 -31 21 -47 34 -16 13 -33 21 -39 17 -6 -4
-9 -3 -8 2 5 13 -278 284 -287 275 -5 -4 -5 -2 -2 4 7 11 -47 65 -160 163 -50
43 -66 51 -77 42 -10 -9 -16 -8 -25 3 -9 11 -9 16 0 22 7 4 9 3 5 -4 -3 -6 -2
-13 3 -16 5 -4 12 -2 16 3 8 13 -116 103 -133 96 -7 -2 -11 -1 -8 4 7 11 -22
23 -36 14 -7 -3 -8 -1 -4 6 5 8 -6 18 -33 29 -22 9 -41 22 -41 28 0 19 56 98
91 129 19 17 49 37 67 44 17 7 30 17 27 21 -3 4 5 8 18 8 29 0 200 46 193 52
-2 3 14 5 37 6 23 0 83 6 132 12 50 7 150 16 224 20 177 11 171 5 171 196 0
168 -4 189 -34 181 -15 -5 -17 -4 -7 3 11 8 10 11 -5 18 -11 5 -835 7 -1836 4z
m1742 -198 l0 -58 -157 -13 c-87 -7 -194 -19 -238 -27 -118 -21 -266 -65 -258
-77 3 -5 1 -7 -5 -3 -14 8 -60 -10 -81 -32 -9 -10 -11 -11 -6 -3 9 12 7 12
-13 2 -12 -7 -20 -17 -16 -23 4 -7 3 -8 -4 -4 -7 4 -22 -2 -34 -13 -12 -12
-26 -21 -30 -21 -5 0 -8 -8 -6 -17 2 -10 -3 -17 -9 -16 -15 3 -65 -62 -83
-109 -8 -18 -15 -34 -16 -36 -1 -2 -36 2 -77 9 -73 12 -75 13 -66 37 5 13 7
28 3 33 -3 5 -1 9 4 9 6 0 25 26 42 58 18 31 45 73 61 93 22 29 26 39 16 49
-10 12 -9 12 5 1 9 -7 22 -10 28 -6 15 9 12 25 -3 19 -8 -3 -20 3 -28 13 -12
16 -12 17 1 7 22 -17 51 -12 85 13 l30 22 -151 1 -152 0 -6 35 c-4 19 -9 35
-11 35 -2 0 -20 -16 -39 -35 l-36 -35 -737 0 -736 0 63 -57 c35 -32 69 -57 74
-55 6 2 8 1 4 -3 -3 -4 13 -36 38 -73 24 -36 44 -70 44 -74 0 -5 5 -6 12 -2 6
4 8 3 5 -3 -3 -5 5 -37 18 -70 14 -33 34 -100 46 -149 11 -49 26 -96 32 -104
10 -13 10 -13 -5 -2 -14 12 -21 6 -52 -48 -20 -34 -36 -65 -36 -71 0 -5 -9
-18 -20 -29 -11 -11 -20 -27 -20 -35 0 -8 -4 -15 -8 -15 -5 0 -12 48 -15 108
-9 160 -66 351 -118 398 -11 9 -19 22 -19 29 0 15 -98 107 -150 140 -23 15
-48 24 -56 21 -8 -3 -12 -2 -9 4 8 12 -33 33 -51 26 -8 -3 -13 -2 -10 2 10 17
-142 53 -309 73 -49 5 -110 13 -135 17 l-45 7 -3 58 -3 57 1726 0 1725 0 0
-58z m-1220 -117 c-28 -29 -31 -37 -20 -50 7 -8 10 -15 6 -15 -16 0 -21 3 -18
11 4 18 -15 9 -41 -19 -15 -16 -24 -32 -20 -36 4 -4 0 -4 -9 -1 -16 6 -31 -8
-34 -33 -2 -7 3 -11 9 -9 7 3 11 10 9 16 -1 7 2 10 8 6 6 -4 18 -1 26 6 8 6
17 10 19 7 6 -6 -122 -119 -167 -147 -21 -12 -38 -25 -38 -27 0 -7 85 43 144
84 l49 34 -23 -32 c-24 -34 -207 -190 -222 -190 -5 0 -6 -5 -3 -10 4 -6 3 -9
-2 -8 -13 4 -232 -110 -225 -117 4 -3 -1 -3 -10 0 -13 5 -121 -45 -138 -65 -3
-3 -27 -20 -55 -38 -50 -32 -123 -91 -95 -76 8 4 34 20 57 36 118 80 279 147
413 172 162 31 382 14 560 -43 50 -16 100 -27 109 -24 14 4 14 3 1 -6 -13 -9
-13 -11 1 -11 9 0 60 -22 113 -50 101 -52 123 -61 90 -34 -18 14 -18 15 4 4
12 -6 20 -15 17 -19 -2 -5 24 -27 58 -49 74 -48 230 -182 254 -218 9 -14 22
-23 30 -20 8 3 11 2 8 -3 -3 -5 18 -40 46 -78 28 -37 59 -85 70 -105 13 -25
24 -35 34 -32 8 4 15 1 15 -6 0 -6 -4 -8 -10 -5 -14 9 -14 7 23 -78 19 -42 37
-74 42 -69 4 4 5 2 2 -5 -4 -6 4 -53 17 -105 38 -144 49 -241 44 -415 -4 -146
-7 -165 -36 -251 -18 -52 -29 -98 -26 -104 4 -6 2 -8 -3 -5 -13 8 -26 -20 -16
-35 3 -7 1 -8 -5 -4 -6 4 -21 -12 -36 -37 -14 -24 -37 -54 -51 -67 -13 -12
-22 -27 -18 -33 3 -6 2 -7 -4 -4 -5 3 -27 -13 -49 -35 -21 -23 -30 -36 -19
-28 17 12 18 12 7 0 -7 -8 -17 -16 -23 -16 -5 -1 -14 -2 -20 -3 -5 0 -7 -6 -4
-11 4 -6 3 -9 -2 -8 -12 4 -102 -55 -97 -64 3 -4 -3 -5 -12 -1 -11 4 -15 3
-10 -5 3 -6 1 -14 -5 -18 -8 -4 -9 -3 -5 4 10 16 6 15 -57 -13 -216 -95 -491
-93 -712 7 -38 18 -87 45 -107 61 -21 16 -38 26 -38 23 0 -3 -21 17 -46 44
-26 27 -51 47 -57 43 -5 -3 -7 -1 -3 5 3 6 -6 30 -22 54 -95 145 -106 381 -27
572 8 20 16 39 16 43 3 17 89 120 134 162 57 52 186 115 273 132 39 7 104 10
170 6 122 -6 196 -29 266 -82 24 -18 48 -30 52 -27 4 4 4 2 0 -5 -6 -11 9 -27
26 -28 3 0 10 -4 15 -9 5 -5 3 -6 -4 -2 -7 4 -13 4 -13 -1 0 -13 36 -64 41
-59 3 3 5 -3 6 -12 0 -9 6 -43 13 -75 11 -48 11 -68 -1 -115 -7 -31 -13 -63
-12 -69 0 -7 -3 -11 -7 -8 -13 8 -31 -21 -24 -41 5 -16 4 -16 -5 -4 -10 13
-15 8 -12 -12 0 -4 -5 -5 -13 -2 -8 3 -17 0 -22 -7 -5 -8 -3 -10 6 -4 9 5 11
4 6 -4 -4 -6 -11 -9 -16 -6 -5 3 -22 -1 -38 -9 -15 -8 -44 -17 -63 -21 -29 -5
-36 -3 -36 9 0 9 2 14 5 11 10 -10 63 38 86 78 14 23 27 65 30 92 l6 50 -14
-48 c-7 -27 -23 -62 -35 -78 -12 -16 -19 -34 -16 -39 3 -5 0 -7 -8 -4 -8 3
-18 1 -22 -5 -16 -28 -22 -6 -8 37 22 73 13 133 -33 200 -68 98 -185 133 -324
98 -99 -25 -171 -80 -231 -175 -42 -65 -36 -73 7 -10 78 117 169 171 297 177
55 3 89 0 118 -12 22 -9 45 -14 50 -10 5 3 8 0 7 -7 -2 -7 2 -13 9 -14 17 0
70 -71 83 -111 11 -31 10 -73 -2 -139 -3 -21 -53 -75 -68 -75 -13 0 -13 16 0
41 17 31 14 107 -5 142 -38 71 -140 111 -215 84 -19 -7 -34 -19 -32 -26 1 -7
-2 -10 -8 -6 -14 9 -50 -13 -50 -31 0 -9 -5 -12 -12 -8 -7 4 -8 3 -4 -4 4 -7
3 -12 -2 -12 -13 0 -46 -57 -60 -101 -16 -51 -25 -127 -14 -110 7 9 8 -1 5
-32 -7 -57 30 -140 89 -199 111 -111 354 -155 524 -95 66 24 125 57 119 67 -3
5 0 7 7 5 21 -8 105 62 149 123 132 185 153 484 54 780 -39 115 -98 236 -110
224 -5 -4 -5 -1 -1 5 4 7 -7 33 -25 60 -49 71 -170 194 -188 191 -9 -2 -15 2
-14 9 2 11 -58 63 -73 63 -4 0 -15 6 -23 14 -51 44 -209 112 -353 152 -127 35
-345 44 -501 20 -123 -18 -274 -65 -254 -79 7 -5 4 -6 -10 -2 -22 6 -180 -65
-195 -88 -4 -7 -8 -9 -8 -4 0 4 -11 0 -25 -9 -14 -9 -22 -21 -18 -27 3 -6 1
-7 -5 -3 -14 8 -64 -23 -56 -35 3 -5 -1 -6 -8 -4 -15 6 -81 -53 -73 -65 3 -4
-3 -7 -12 -6 -9 0 -18 -5 -21 -13 -3 -9 0 -11 8 -6 8 5 11 4 6 -3 -4 -6 -13
-9 -21 -6 -15 6 -38 -29 -27 -41 4 -5 2 -5 -4 -2 -7 4 -32 -17 -58 -47 -45
-53 -57 -74 -34 -60 7 4 8 3 4 -5 -4 -6 -11 -9 -15 -6 -14 8 -61 -65 -133
-202 -53 -103 -132 -326 -125 -354 3 -10 1 -17 -3 -14 -10 6 -14 -12 -35 -149
-19 -116 -21 -353 -5 -480 9 -77 17 -118 46 -245 4 -20 7 -22 15 -10 8 10 9 8
4 -9 -9 -31 24 -129 37 -111 7 10 8 9 4 -5 -8 -24 13 -93 24 -77 3 7 7 -1 7
-16 0 -15 8 -46 18 -67 13 -31 19 -36 27 -25 7 10 8 8 3 -8 -4 -14 4 -40 22
-74 45 -83 49 -89 58 -81 5 4 5 2 2 -5 -9 -14 77 -145 88 -135 5 4 5 2 2 -4
-8 -13 91 -126 104 -119 5 4 6 0 3 -8 -2 -7 7 -22 21 -33 14 -10 44 -36 66
-57 38 -35 39 -37 16 -37 -13 0 -32 9 -42 20 -10 12 -25 18 -32 15 -8 -2 -12
-1 -9 3 2 4 -27 44 -66 87 -39 44 -82 95 -95 112 -14 18 -30 30 -36 26 -5 -3
-7 -2 -4 3 3 5 -4 21 -15 34 -11 14 -16 19 -12 11 4 -9 3 -12 -4 -7 -6 4 -9
13 -6 20 5 14 -10 29 -33 32 -18 3 -16 -3 13 -42 14 -18 30 -31 35 -28 5 3 6
-1 3 -9 -6 -16 44 -80 56 -72 5 3 12 0 16 -6 5 -8 3 -9 -6 -4 -8 5 -11 3 -8
-6 3 -8 12 -13 19 -11 8 2 11 0 7 -4 -11 -10 12 -35 25 -27 6 3 7 1 3 -6 -4
-7 17 -37 53 -75 34 -34 61 -66 61 -69 0 -9 -93 -8 -153 2 -37 6 -58 17 -91
50 -23 23 -45 39 -48 36 -3 -4 -9 -1 -14 6 -4 8 -3 10 4 5 19 -12 13 10 -8 29
-10 9 -36 41 -56 71 -20 29 -41 51 -47 47 -6 -3 -7 -1 -3 5 3 6 -2 28 -13 49
-119 232 -211 504 -246 725 -18 114 -32 350 -40 653 -9 340 -33 528 -86 669
-15 42 -24 54 -30 45 -7 -11 -9 -9 -10 6 -1 11 -1 24 0 28 1 5 -8 22 -20 38
-21 30 -23 45 -4 31 6 -4 23 -24 38 -45 16 -21 33 -34 39 -31 7 4 8 2 4 -4 -4
-6 5 -31 20 -54 15 -24 42 -77 61 -118 18 -41 33 -69 33 -62 0 7 -5 22 -11 33
-6 11 -12 29 -14 40 -2 11 -20 52 -41 91 -20 40 -29 67 -21 60 10 -9 16 -9 19
-2 1 5 9 0 17 -12 13 -21 13 -22 -2 -9 -26 21 -20 4 13 -37 39 -49 86 -155 95
-217 l8 -50 14 69 c8 38 23 92 33 119 11 28 16 55 13 61 -3 6 -3 8 1 5 3 -3
24 11 45 32 28 29 47 39 70 39 31 0 31 0 25 -42 l-5 -43 19 40 c10 22 25 58
32 80 14 44 72 172 126 278 19 38 32 73 28 78 -3 5 -1 8 5 7 6 -2 27 22 45 52
28 44 32 58 23 70 -10 13 -10 13 4 2 14 -10 19 -8 34 15 10 15 38 49 63 75 24
26 41 52 37 57 -3 7 0 8 9 5 19 -7 21 7 4 26 -11 12 -10 12 4 1 15 -11 22 -9
52 17 43 37 158 105 208 123 20 7 35 15 33 19 -2 3 7 7 20 8 13 1 45 10 72 20
26 10 86 27 133 36 250 53 384 104 480 187 56 48 64 50 20 4z m-243 -681 c-3
-3 -12 -4 -19 -1 -8 3 -5 6 6 6 11 1 17 -2 13 -5z m1108 -53 c3 -5 0 -13 -6
-17 -7 -4 -9 -3 -5 4 3 5 0 13 -6 15 -9 4 -10 6 -1 6 6 1 14 -3 18 -8z m-731
-36 l41 -12 -3 -309 c-1 -170 -2 -313 -2 -319 0 -5 -21 -11 -48 -13 -26 -2
-58 -4 -72 -5 l-25 -2 -3 210 c-2 116 -1 269 3 342 l7 132 31 -6 c17 -4 49
-12 71 -18z m-934 -88 c0 -1 -12 -3 -28 -3 -15 -1 -21 1 -14 3 6 3 9 9 6 15
-4 6 2 5 15 -1 11 -7 21 -13 21 -14z m1180 -17 c28 -17 56 -27 62 -24 7 4 8 2
4 -4 -6 -11 31 -38 47 -34 4 1 7 -3 7 -9 0 -5 6 -7 13 -3 6 4 9 4 5 -1 -9 -9
9 -35 24 -35 5 0 6 6 2 13 -4 7 -3 9 2 4 5 -5 9 -12 9 -16 0 -13 123 -141 128
-133 2 4 3 2 1 -5 -3 -14 42 -77 48 -66 3 4 3 2 2 -4 -2 -7 14 -49 35 -92 31
-64 41 -77 52 -68 11 10 11 9 1 -4 -9 -12 -6 -32 14 -93 57 -181 69 -399 28
-541 -9 -33 -17 -68 -18 -77 0 -9 -5 -14 -10 -11 -5 4 -7 -1 -3 -11 4 -10 3
-15 -3 -11 -6 3 -10 2 -10 -4 0 -5 -16 -30 -35 -56 -20 -25 -33 -51 -29 -57 4
-6 3 -8 -3 -5 -6 4 -23 -3 -37 -14 -21 -17 -24 -24 -15 -35 6 -8 16 -11 23 -7
6 3 3 -2 -6 -13 -14 -15 -20 -16 -30 -5 -11 10 -9 11 7 5 19 -6 19 -6 4 11
-16 16 -18 16 -43 0 -14 -10 -24 -20 -22 -24 3 -4 -3 -7 -12 -8 -9 0 -44 -11
-77 -23 -35 -13 -94 -24 -142 -28 l-83 -5 0 130 0 131 88 4 c70 3 96 9 132 29
25 14 44 31 42 38 -1 7 2 9 9 6 21 -13 87 84 73 107 -4 6 -3 8 4 4 15 -9 26
72 19 143 -3 31 -16 81 -30 111 -29 64 -94 143 -109 134 -7 -4 -8 -2 -4 4 8
13 -30 36 -44 27 -6 -4 -9 -3 -8 2 2 4 -1 9 -5 10 -4 1 -14 9 -22 16 -8 8 -43
22 -79 32 l-66 18 0 288 c0 159 2 289 5 289 2 0 27 -14 55 -30z m665 -50 l20
-25 -22 19 c-13 11 -23 24 -23 29 0 6 1 8 3 6 1 -2 11 -15 22 -29z m-535 16
c0 -3 -4 -8 -10 -11 -5 -3 -10 -1 -10 4 0 6 5 11 10 11 6 0 10 -2 10 -4z m334
-22 c7 -19 2 -18 -19 6 -16 17 -16 20 -3 15 9 -4 19 -13 22 -21z m251 -34 c3
-6 -1 -7 -9 -4 -18 7 -21 14 -7 14 6 0 13 -4 16 -10z m-3018 -26 c-3 -3 -12
-4 -19 -1 -8 3 -5 6 6 6 11 1 17 -2 13 -5z m2864 -68 c10 -23 14 -33 7 -22
-51 75 -59 89 -43 76 9 -7 25 -32 36 -54z m-316 24 c3 -6 -1 -7 -9 -4 -18 7
-21 14 -7 14 6 0 13 -4 16 -10z m-2465 -35 c14 -19 14 -19 -2 -6 -10 7 -18 18
-18 24 0 6 1 8 3 6 1 -2 9 -13 17 -24z m2516 2 c8 3 14 3 14 0 0 -14 -30 -14
-41 1 -11 14 -11 15 0 5 7 -6 20 -9 27 -6z m-1818 -37 c-7 -10 -14 -17 -17
-15 -4 4 18 35 25 35 2 0 -1 -9 -8 -20z m2113 -3 c-10 -9 -11 -8 -5 6 3 10 9
15 12 12 3 -3 0 -11 -7 -18z m104 -7 c3 -6 -1 -7 -9 -4 -18 7 -21 14 -7 14 6
0 13 -4 16 -10z m-2618 -21 c-8 -13 -13 -15 -18 -7 -10 15 -4 25 15 25 11 0
12 -4 3 -18z m373 -188 l0 -98 -56 -37 c-49 -33 -54 -39 -42 -54 12 -15 11
-16 -5 -3 -15 12 -19 12 -31 -5 -12 -16 -14 -13 -17 33 -2 28 -1 49 3 47 3 -2
26 30 50 71 78 137 83 145 91 145 4 0 7 -44 7 -99z m755 -71 c-9 -17 -13 -36
-9 -42 4 -6 3 -8 -3 -5 -13 8 -46 -50 -37 -65 4 -6 3 -8 -3 -5 -13 8 -35 -16
-31 -34 2 -7 -3 -13 -9 -14 -7 0 -13 -4 -12 -8 0 -5 -18 -24 -40 -44 -23 -19
-38 -39 -35 -44 3 -5 -1 -6 -9 -3 -8 3 -18 1 -22 -5 -11 -18 -108 -77 -243
-147 -70 -37 -134 -73 -143 -80 -8 -8 -19 -14 -23 -14 -16 0 -116 -82 -173
-143 -118 -127 -174 -295 -158 -480 8 -96 17 -108 20 -26 2 33 9 60 24 79 11
16 21 34 21 39 0 5 5 13 12 17 7 5 8 3 4 -5 -5 -8 -2 -11 9 -9 11 2 24 -10 37
-32 17 -31 19 -48 15 -145 -5 -99 -4 -106 8 -73 7 21 21 50 31 65 10 16 17 32
15 38 -1 5 1 7 5 2 10 -10 55 33 47 46 -3 6 -1 7 4 4 13 -8 75 12 69 21 -7 12
177 -4 214 -18 40 -15 102 -56 143 -94 16 -14 33 -24 38 -21 5 3 6 0 3 -8 -3
-8 2 -19 10 -26 7 -6 24 -36 36 -66 12 -30 25 -53 29 -51 3 2 6 -9 7 -25 1
-16 -2 -29 -5 -30 -38 -5 -49 -4 -45 3 4 5 13 7 22 3 13 -5 12 -2 -3 15 -44
49 -170 51 -250 4 -51 -30 -109 -100 -100 -121 2 -8 1 -11 -5 -8 -16 10 -32
-78 -28 -155 3 -50 14 -97 32 -140 34 -84 93 -173 108 -164 7 5 8 3 3 -5 -4
-8 5 -26 26 -47 29 -30 31 -34 13 -40 -39 -12 -44 -13 -41 -5 1 4 -14 26 -35
48 -28 32 -39 38 -49 29 -11 -9 -11 -8 0 6 14 18 6 42 -10 32 -5 -3 -8 -2 -7
3 1 4 -17 46 -40 93 -52 106 -72 183 -72 281 0 100 22 164 77 231 l45 53 -49
-50 c-66 -66 -93 -138 -93 -245 0 -43 5 -102 11 -131 14 -64 43 -131 53 -122
4 4 4 0 0 -10 -3 -9 -9 -17 -13 -17 -8 0 -74 147 -91 204 -7 21 -16 62 -21 90
-7 45 -8 43 -3 -18 5 -77 31 -161 75 -250 33 -66 32 -83 -1 -36 -12 17 -26 27
-33 24 -7 -4 -9 -4 -5 0 8 10 -71 112 -84 108 -5 -1 -7 2 -4 7 9 13 -76 151
-88 144 -5 -3 -6 -1 -2 5 3 6 -9 44 -28 84 -48 103 -101 249 -125 345 -25 97
-28 237 -6 333 8 36 17 76 20 90 3 14 -1 7 -10 -14 -20 -52 -29 -59 -20 -16
12 57 65 178 103 234 19 28 35 56 35 63 0 7 3 11 6 11 3 -1 43 35 88 79 51 49
117 99 172 132 90 53 121 77 59 45 -88 -44 -199 -118 -256 -169 -56 -51 -152
-171 -152 -190 0 -12 -42 -77 -47 -72 -2 3 7 30 21 61 14 31 23 63 19 72 -3 8
-2 14 3 12 5 -2 10 1 11 6 1 5 6 12 11 15 5 3 22 26 37 51 15 25 64 81 108
124 44 44 65 69 48 56 -37 -26 -134 -123 -171 -170 -14 -18 -36 -53 -49 -78
-33 -61 -38 -38 -7 32 37 83 21 68 -21 -19 -19 -41 -40 -78 -46 -82 -6 -3 -7
-1 -3 5 3 6 13 53 22 104 25 150 93 265 208 352 51 39 160 96 184 96 6 0 12 4
12 9 0 5 6 8 13 8 6 -1 59 5 117 12 64 8 145 12 210 8 97 -5 272 11 287 27 17
17 22 2 8 -24z m1273 -55 c-3 -3 -9 2 -12 12 -6 14 -5 15 5 6 7 -7 10 -15 7
-18z m-2038 -5 c-12 -8 -12 -10 -1 -10 8 0 12 -3 8 -6 -9 -9 -28 6 -22 17 4 5
12 9 18 9 7 0 6 -4 -3 -10z m-202 -45 c-3 -3 -9 2 -12 12 -6 14 -5 15 5 6 7
-7 10 -15 7 -18z m1257 -25 c-3 -5 -12 -10 -18 -10 -7 0 -6 4 3 10 19 12 23
12 15 0z m782 -212 c-3 -8 -6 -5 -6 6 -1 11 2 17 5 13 3 -3 4 -12 1 -19z
m-484 -337 c1 -138 0 -251 -2 -251 -18 0 -93 56 -117 87 -29 38 -29 39 -28
173 1 144 3 172 14 165 4 -2 20 10 36 27 26 27 84 61 92 53 1 -1 4 -115 5
-254z m-133 208 c-7 -11 -14 -18 -17 -15 -3 3 0 12 7 21 18 21 23 19 10 -6z
m320 -184 c0 -2 -10 -9 -22 -15 -22 -11 -22 -10 -4 4 21 17 26 19 26 11z
m-1528 -260 c-2 -149 -6 -245 -12 -245 -6 0 -10 17 -10 39 0 46 -36 105 -67
109 -27 4 -66 -15 -58 -28 3 -6 0 -7 -8 -4 -13 4 -12 18 4 91 10 47 30 110 43
139 31 68 83 144 99 144 9 0 11 -59 9 -245z m15 203 c-3 -8 -6 -5 -6 6 -1 11
2 17 5 13 3 -3 4 -12 1 -19z m-99 -23 c-6 -14 -13 -23 -15 -21 -5 5 15 46 22
46 3 0 -1 -11 -7 -25z m2084 -44 c-9 -16 -18 -28 -21 -26 -4 5 27 55 34 55 2
0 -4 -13 -13 -29z m-2918 -299 c3 -5 -1 -9 -9 -9 -8 0 -12 4 -9 9 3 4 7 8 9 8
2 0 6 -4 9 -8z m2171 -192 c3 -6 -1 -7 -9 -4 -18 7 -21 14 -7 14 6 0 13 -4 16
-10z m5 -20 c25 -6 54 -12 65 -15 19 -4 20 -12 20 -257 l0 -253 -28 -23 c-15
-13 -24 -29 -20 -34 3 -6 1 -8 -5 -4 -6 3 -27 -14 -47 -39 -21 -25 -41 -45
-46 -45 -4 0 -8 153 -8 340 -1 263 2 340 12 340 6 0 32 -5 57 -10z m-1925
-190 c10 -11 16 -20 13 -20 -3 0 -13 9 -23 20 -10 11 -16 20 -13 20 3 0 13 -9
23 -20z m41 -26 c1 -9 -1 -13 -4 -9 -4 4 -7 10 -7 13 0 4 -4 14 -9 22 -7 12
-6 13 4 3 8 -7 15 -20 16 -29z m2184 -188 c0 -2 -7 -7 -16 -10 -8 -3 -12 -2
-9 4 6 10 25 14 25 6z m431 -31 c35 -14 71 -29 79 -32 13 -6 13 -5 0 12 -14
17 -14 17 7 4 14 -8 18 -16 12 -20 -14 -8 9 -24 35 -24 11 0 20 -6 22 -13 1
-7 0 -8 -3 -2 -2 5 -10 10 -16 10 -6 0 2 -13 18 -30 15 -16 33 -27 38 -23 6 3
7 1 3 -5 -9 -14 48 -115 59 -104 4 4 5 2 2 -4 -8 -14 15 -87 23 -74 4 6 6 -49
6 -122 -1 -125 -3 -136 -29 -186 -15 -30 -24 -59 -20 -64 3 -6 1 -8 -4 -5 -14
9 -46 -40 -37 -55 5 -7 3 -8 -5 -3 -8 4 -23 -3 -39 -18 -70 -67 -223 -95 -288
-52 -76 49 -100 136 -68 246 17 57 44 99 44 67 0 -27 49 -58 90 -58 44 0 103
27 94 42 -4 6 -2 8 4 5 15 -10 59 47 72 91 16 59 12 129 -10 173 -12 22 -25
37 -31 34 -5 -4 -8 -1 -7 5 5 20 -48 52 -95 57 -56 7 -140 -5 -132 -18 3 -5 0
-6 -7 -4 -17 7 -124 -58 -121 -73 2 -6 -3 -9 -11 -6 -7 3 -19 -2 -26 -11 -10
-12 -10 -18 0 -30 9 -10 9 -15 1 -15 -6 0 -11 5 -11 12 0 6 -11 1 -25 -12 -14
-13 -25 -29 -25 -37 0 -7 -4 -13 -10 -13 -12 0 -61 -83 -63 -109 0 -11 -4 -18
-7 -16 -8 5 -43 -95 -65 -181 -8 -34 -22 -123 -30 -197 -16 -144 -12 -247 20
-502 49 -388 69 -873 46 -1111 -15 -159 -47 -341 -75 -439 l-23 -79 36 -51
c52 -73 63 -85 74 -78 6 3 7 1 3 -5 -9 -15 46 -54 124 -91 210 -97 740 -119
1215 -50 169 24 457 97 580 146 133 53 305 135 305 145 0 5 4 7 9 4 8 -6 155
82 219 130 18 14 29 30 26 36 -4 7 -2 8 5 4 24 -16 236 186 365 347 65 80 76
100 66 112 -7 8 -17 12 -23 8 -6 -4 -7 -1 -3 6 6 9 12 8 26 -4 18 -16 22 -12
89 90 69 103 171 271 171 280 0 3 14 27 31 55 19 31 28 57 24 67 -3 10 -3 14
1 10 10 -10 86 134 79 151 -3 7 -1 11 4 8 12 -8 35 50 25 65 -4 8 -3 10 4 5
13 -8 45 61 35 77 -3 6 -1 7 5 3 11 -7 16 7 15 41 -1 7 2 11 6 9 4 -3 12 7 18
22 7 15 23 53 37 85 l25 57 70 0 c79 0 106 -7 93 -24 -8 -9 -28 -114 -67 -346
-3 -19 -17 -93 -30 -165 -14 -71 -31 -170 -40 -220 -9 -49 -22 -126 -30 -170
-8 -44 -31 -168 -50 -275 -19 -107 -57 -323 -85 -480 -28 -157 -58 -323 -66
-370 -8 -47 -17 -95 -20 -108 l-4 -22 -1932 0 -1932 0 27 28 c15 16 24 32 20
37 -5 4 -3 5 3 2 15 -9 48 29 38 44 -4 7 -3 10 4 6 11 -8 72 69 72 90 0 7 4
13 8 13 16 0 82 155 109 256 25 92 27 113 27 289 -1 185 -2 194 -36 325 -20
74 -46 158 -58 185 -13 28 -24 55 -25 61 -4 19 -85 147 -128 203 -46 59 -144
148 -159 143 -5 -1 -7 2 -4 7 8 13 -135 103 -156 98 -10 -3 -16 -1 -15 5 3 12
-71 41 -193 75 -88 25 -109 27 -288 28 -180 0 -195 1 -208 19 -19 26 -18 29
13 62 15 16 26 33 25 37 -1 5 1 7 5 4 5 -2 46 2 93 9 47 7 112 14 145 15 102
3 16 17 -110 17 -118 1 -187 -10 -333 -53 -80 -23 -104 -26 -175 -21 -101 7
-107 8 -102 16 2 4 28 10 57 13 60 6 151 39 188 67 l25 19 -43 -15 c-128 -43
-329 -39 -479 11 -40 14 -80 22 -90 19 -13 -4 -14 -3 -5 3 15 11 -53 47 -70
37 -6 -4 -8 -2 -5 3 4 6 -18 28 -48 49 -30 20 -55 40 -55 43 0 3 42 5 92 3 51
-2 111 1 133 7 34 9 27 10 -42 5 -52 -3 -83 -1 -88 5 -3 7 3 11 16 11 38 0
179 42 173 51 -3 5 1 6 9 3 12 -4 51 8 132 41 11 5 22 9 25 10 72 18 120 28
176 34 61 7 63 9 22 10 -66 2 -169 -20 -344 -73 -155 -46 -274 -67 -274 -49 0
6 14 13 31 17 17 3 28 10 24 16 -3 5 0 7 8 4 15 -5 153 71 140 78 -4 3 -2 3 5
2 19 -5 82 28 75 39 -3 6 -1 7 5 3 6 -3 44 5 84 18 91 31 196 41 263 26 89
-19 219 -63 255 -85 47 -29 100 -56 100 -52 0 5 -82 60 -90 61 -2 1 -14 11
-27 24 -13 13 -28 20 -35 16 -6 -4 -8 -3 -5 3 9 14 -19 37 -34 27 -8 -4 -9 -3
-5 5 4 6 -12 33 -38 63 -25 29 -46 56 -46 61 0 4 -5 5 -12 1 -6 -4 -8 -3 -5 3
4 6 -3 22 -14 37 -21 27 -11 38 11 11 7 -8 16 -13 20 -10 4 3 10 -1 13 -9 8
-21 126 -88 140 -80 7 4 9 4 5 -1 -11 -11 71 -47 256 -111 190 -66 388 -159
505 -238 46 -30 88 -53 94 -49 5 3 7 1 3 -5 -7 -12 33 -44 46 -36 5 3 7 2 6
-3 -2 -4 1 -10 6 -13 32 -19 195 -175 250 -240 l38 -45 -33 50 c-45 68 -245
265 -269 265 -10 0 -22 5 -26 12 -4 7 -3 8 4 4 7 -4 12 -5 12 -3 0 9 -177 125
-250 164 -76 41 -314 141 -347 146 -10 1 -23 6 -29 9 -6 4 -37 16 -70 28 -149
54 -302 132 -359 185 -41 38 -45 43 -20 32 150 -71 140 -67 480 -168 61 -17
148 -49 194 -70 70 -33 87 -37 100 -27 14 11 14 11 4 -2 -10 -14 -3 -21 50
-50 34 -18 74 -41 88 -51 14 -10 29 -16 33 -12 3 3 6 1 6 -6 0 -7 5 -9 10 -6
6 4 9 1 8 -7 -2 -7 5 -12 14 -12 10 1 16 -3 15 -10 -1 -6 9 -10 23 -8 17 1 21
-1 12 -6 -10 -7 -7 -13 13 -26 14 -9 31 -14 37 -10 6 4 8 3 5 -3 -7 -11 162
-160 176 -155 5 1 6 -2 3 -7 -3 -5 1 -14 9 -21 8 -7 15 -9 15 -5 0 4 6 2 13
-4 8 -6 18 -7 23 -3 4 4 2 -1 -5 -10 -11 -15 -9 -21 14 -45 14 -15 45 -54 67
-85 22 -32 45 -55 51 -51 5 3 7 1 3 -5 -3 -6 9 -41 28 -79 75 -151 127 -313
150 -473 10 -71 14 -83 15 -50 2 75 -19 219 -49 336 -32 121 -107 297 -123
287 -6 -3 -7 -1 -3 5 13 22 -6 37 -21 17 -7 -11 -13 -14 -13 -9 0 6 5 15 11
21 8 8 0 26 -30 67 -23 31 -46 54 -52 51 -5 -4 -8 -1 -7 7 2 7 -3 12 -10 10
-8 -1 -11 2 -7 9 9 13 -104 131 -117 123 -5 -3 -7 0 -6 7 2 6 -3 14 -11 17 -9
3 -11 0 -6 -8 5 -9 4 -11 -4 -6 -6 4 -9 11 -6 16 3 5 -18 29 -47 54 -49 43
-77 59 -63 37 3 -5 1 -12 -4 -16 -6 -3 -8 4 -6 15 3 15 -7 27 -38 48 -23 15
-44 29 -47 33 -3 3 -30 22 -60 41 -30 20 -68 49 -85 64 -16 15 -66 62 -110
103 -79 75 -79 75 -20 12 33 -36 69 -73 80 -82 13 -12 15 -18 7 -19 -23 0
-238 168 -356 279 l-59 56 37 -47 c20 -26 52 -58 69 -71 18 -13 58 -50 90 -81
35 -34 62 -54 70 -50 9 5 9 4 1 -5 -8 -9 -27 -6 -79 13 -38 14 -73 22 -78 19
-6 -3 -7 -1 -4 4 4 6 -6 19 -21 28 -15 10 -39 29 -54 43 -24 22 -30 23 -45 12
-15 -12 -16 -12 -5 0 10 11 6 20 -20 47 -31 32 -57 45 -42 21 4 -7 3 -8 -5 -4
-6 4 -9 12 -5 17 8 14 -26 50 -40 42 -6 -3 -8 -3 -4 1 4 5 -19 43 -50 85 -84
112 -133 189 -123 196 5 3 16 -1 23 -9 18 -17 72 -45 95 -49 10 -1 23 -6 30
-10 6 -4 49 -12 95 -18 67 -9 120 -8 281 6 289 26 372 15 478 -61 64 -47 139
-195 139 -278 0 -17 5 -38 10 -46 9 -13 10 -13 10 0 0 47 -23 189 -38 229 -14
34 -16 55 -9 81 5 19 10 45 10 57 1 11 5 19 9 17 4 -2 13 4 20 14 44 59 120
79 177 46 l28 -16 -19 -77 c-32 -136 -43 -287 -30 -424 13 -134 47 -315 57
-305 2 2 0 22 -5 44 -50 224 -14 604 75 792 35 75 99 165 154 216 16 16 28 34
24 39 -3 6 -1 7 5 3 6 -4 33 9 60 28 66 48 167 94 243 111 96 22 230 13 310
-20z m-588 -101 c-4 -11 -9 -12 -19 -3 -19 15 -18 20 3 12 12 -5 14 -3 8 7 -5
8 -4 11 3 6 6 -4 9 -13 5 -22z m820 -45 c-8 -8 -13 -7 -18 2 -5 8 -4 10 3 5 7
-4 12 -2 12 5 0 7 3 9 7 6 4 -4 2 -12 -4 -18z m-913 -39 c0 -5 -5 -10 -11 -10
-5 0 -7 5 -4 10 3 6 8 10 11 10 2 0 4 -4 4 -10z m-39 -43 c-10 -9 -11 -8 -5 6
3 10 9 15 12 12 3 -3 0 -11 -7 -18z m-951 -153 c0 -8 -19 -13 -24 -6 -3 5 1 9
9 9 8 0 15 -2 15 -3z m1458 -159 c-3 -3 -9 2 -12 12 -6 14 -5 15 5 6 7 -7 10
-15 7 -18z m-1867 -130 c5 4 6 0 3 -8 -5 -13 62 -83 115 -120 41 -28 18 -29
-80 -4 l-94 23 -3 85 -2 84 26 -33 c14 -18 30 -30 35 -27z m2310 -68 c-10 -9
-11 -8 -5 6 3 10 9 15 12 12 3 -3 0 -11 -7 -18z m-427 -62 c-4 -8 -11 -15 -16
-15 -6 0 -5 6 2 15 7 8 14 15 16 15 2 0 1 -7 -2 -15z m-1407 -140 c0 -8 -4
-12 -9 -9 -5 3 -6 10 -3 15 9 13 12 11 12 -6z m444 -292 c13 -16 12 -17 -3 -4
-17 13 -22 21 -14 21 2 0 10 -8 17 -17z m-30 -10 c13 -16 12 -17 -3 -4 -17 13
-22 21 -14 21 2 0 10 -8 17 -17z m70 -60 c13 -16 12 -17 -3 -4 -10 7 -18 15
-18 17 0 8 8 3 21 -13z m46 -38 c0 -8 -4 -12 -9 -9 -5 3 -6 10 -3 15 9 13 12
11 12 -6z m134 -142 c13 -16 12 -17 -3 -4 -17 13 -22 21 -14 21 2 0 10 -8 17
-17z m-1175 -23 c12 0 12 -4 4 -21 -24 -44 18 -96 93 -114 l28 -7 -3 -562 -4
-561 -26 -96 c-14 -53 -43 -132 -64 -175 -20 -44 -36 -84 -35 -91 1 -6 -4 -15
-10 -19 -8 -5 -10 -2 -5 7 4 8 -5 -2 -20 -21 -15 -19 -59 -65 -96 -102 l-69
-68 634 0 c349 0 637 -3 640 -6 3 -4 -5 -15 -18 -26 -21 -17 -23 -23 -14 -41
9 -18 9 -20 -2 -9 -18 16 -32 15 -26 -2 4 -9 1 -13 -6 -10 -7 2 -26 -9 -42
-26 l-29 -30 -931 0 -931 0 0 58 1 57 70 7 c209 21 322 43 433 85 32 12 41 20
37 32 -5 13 -4 13 6 4 9 -9 17 -9 33 -1 27 15 46 34 40 41 -3 3 1 4 8 3 22 -2
86 54 133 114 52 68 87 141 116 245 22 78 23 93 26 704 4 507 2 626 -9 633 -9
7 -8 8 5 4 10 -3 25 -6 33 -6z m32 -20 c-7 -10 -14 -18 -15 -16 -6 6 9 36 18
36 5 0 4 -9 -3 -20z m-3 -48 c-3 -3 -11 0 -18 7 -9 10 -8 11 6 5 10 -3 15 -9
12 -12z m4724 -444 c-5 -10 -11 -18 -12 -18 -2 0 -3 8 -3 18 0 10 6 19 13 19
8 0 9 -6 2 -19z m-75 -73 c-4 -8 -1 -15 5 -15 6 0 11 -5 11 -12 0 -8 -6 -7
-16 4 -9 9 -13 21 -10 27 10 16 16 13 10 -4z m-196 -170 c-3 -3 -9 2 -12 12
-6 14 -5 15 5 6 7 -7 10 -15 7 -18z m6 -41 c3 -8 2 -12 -4 -9 -6 3 -10 10 -10
16 0 14 7 11 14 -7z m-327 -308 c0 -8 -6 -12 -15 -9 -11 5 -11 7 0 14 7 5 13
9 14 9 0 0 1 -6 1 -14z m-2560 -158 c-3 -8 -6 -5 -6 6 -1 11 2 17 5 13 3 -3 4
-12 1 -19z m2238 -78 c-3 -5 -12 -10 -18 -10 -7 0 -6 4 3 10 19 12 23 12 15 0z
m90 -70 c-3 -5 -12 -10 -18 -10 -7 0 -6 4 3 10 19 12 23 12 15 0z m-2734 -214
c-6 -7 -10 -20 -8 -27 2 -8 2 -10 -1 -5 -3 5 -18 -15 -33 -45 -15 -30 -28 -46
-29 -36 0 28 60 127 77 127 3 0 0 -6 -6 -14z m1132 -163 c-7 -2 -19 -2 -25 0
-7 3 -2 5 12 5 14 0 19 -2 13 -5z m2624 -319 c-3 -3 -12 -4 -19 -1 -8 3 -5 6
6 6 11 1 17 -2 13 -5z"/>
<path d="M3906 7965 c-10 -8 -58 -31 -107 -51 -48 -21 -85 -42 -82 -47 3 -6 1
-7 -6 -3 -27 17 -431 -139 -431 -166 0 -5 -5 -6 -12 -2 -7 5 -8 3 -4 -5 5 -8
3 -11 -6 -9 -45 10 -304 -231 -358 -332 -19 -36 -3 -21 41 37 124 164 343 324
521 379 32 9 54 22 51 27 -3 6 -1 7 5 3 16 -10 123 25 115 37 -3 6 -1 7 6 3
12 -8 95 16 141 39 14 8 55 27 91 44 40 18 66 36 66 46 0 18 -6 19 -31 0z"/>
<path d="M4495 7363 c6 -5 39 -30 75 -55 103 -73 189 -161 269 -275 24 -35 48
-63 54 -63 6 0 8 -3 4 -6 -3 -3 16 -47 43 -98 56 -105 113 -277 129 -386 18
-124 20 -129 16 -39 -14 304 -210 654 -480 854 -64 47 -134 91 -110 68z"/>
<path d="M2371 6744 c0 -11 3 -14 6 -6 3 7 2 16 -1 19 -3 4 -6 -2 -5 -13z"/>
<path d="M2381 6704 c0 -11 3 -14 6 -6 3 7 2 16 -1 19 -3 4 -6 -2 -5 -13z"/>
<path d="M2442 5785 c0 -16 2 -22 5 -12 2 9 2 23 0 30 -3 6 -5 -1 -5 -18z"/>
<path d="M2451 5720 c-1 -38 33 -183 69 -295 56 -173 202 -462 234 -462 9 0
16 2 16 4 0 13 -65 101 -71 97 -4 -2 -7 4 -7 13 1 10 -12 41 -28 68 -81 137
-158 341 -193 509 -11 50 -20 80 -20 66z"/>
<path d="M3150 6500 c-8 -5 -10 -10 -5 -10 6 0 17 5 25 10 8 5 11 10 5 10 -5
0 -17 -5 -25 -10z"/>
<path d="M4547 4880 c-115 -73 -208 -189 -276 -344 -70 -160 -102 -326 -100
-521 l2 -100 13 145 c15 171 28 248 54 332 10 34 17 65 14 70 -3 4 0 8 6 8 7
0 10 6 8 12 -3 7 1 19 8 26 7 7 10 20 7 29 -4 10 -2 14 4 10 6 -4 16 7 24 25
40 97 170 254 253 307 28 17 45 31 40 31 -6 0 -31 -13 -57 -30z"/>
<path d="M4183 3860 c0 -30 2 -43 4 -27 2 15 2 39 0 55 -2 15 -4 2 -4 -28z"/>
<path d="M2910 3870 c8 -5 20 -10 25 -10 6 0 3 5 -5 10 -8 5 -19 10 -25 10 -5
0 -3 -5 5 -10z"/>
<path d="M7771 3074 c-6 -14 -8 -30 -5 -36 4 -6 2 -8 -3 -5 -13 8 -26 -20 -16
-35 3 -6 2 -8 -4 -5 -8 5 -38 -39 -102 -156 -12 -21 -18 -43 -15 -49 4 -6 3
-8 -3 -5 -14 9 -66 -70 -57 -85 4 -7 3 -8 -4 -4 -7 4 -12 3 -12 -3 0 -5 -12
-23 -26 -40 -14 -17 -23 -35 -19 -41 4 -6 2 -9 -3 -8 -14 4 -114 -131 -106
-144 4 -6 2 -8 -3 -5 -6 4 -38 -26 -71 -66 -68 -82 -166 -179 -265 -262 -38
-32 -64 -61 -61 -67 4 -7 2 -8 -5 -4 -14 9 -43 -12 -36 -24 3 -5 0 -12 -6 -16
-8 -4 -9 -3 -5 4 12 19 3 15 -95 -46 -52 -32 -108 -67 -126 -77 -18 -10 -29
-23 -26 -28 3 -6 1 -7 -5 -3 -13 8 -83 -24 -76 -35 2 -4 -1 -11 -7 -15 -8 -4
-9 -3 -5 4 10 16 -15 15 -39 -1 -11 -8 -41 -22 -67 -32 -27 -10 -45 -22 -41
-28 3 -6 1 -7 -6 -3 -6 4 -53 -8 -104 -28 -50 -19 -114 -41 -142 -49 -45 -13
18 -15 641 -16 l690 -1 28 163 c15 89 36 207 47 262 21 118 105 587 149 834
17 95 29 175 27 177 -2 2 -9 -8 -16 -22z m-433 -704 c-7 -10 -14 -18 -15 -16
-6 6 9 36 18 36 5 0 4 -9 -3 -20z m-85 -85 c-3 -9 -8 -14 -10 -11 -3 3 -2 9 2
15 9 16 15 13 8 -4z m-63 -69 c0 -2 -8 -10 -17 -17 -16 -13 -17 -12 -4 4 13
16 21 21 21 13z m-380 -290 c0 -2 -7 -7 -16 -10 -8 -3 -12 -2 -9 4 6 10 25 14
25 6z"/>
<path d="M4840 7386 c0 -2 8 -10 18 -17 15 -13 16 -12 3 4 -13 16 -21 21 -21
13z"/>
<path d="M2141 5525 c51 -97 90 -156 143 -220 28 -33 52 -62 54 -64 1 -3 7 0
14 7 13 13 -8 46 -23 36 -5 -3 -8 -2 -7 3 2 5 -19 34 -47 66 -27 32 -70 89
-95 126 -69 106 -73 111 -39 46z m168 -229 c-3 -3 -11 5 -18 17 -13 21 -12 21
5 5 10 -10 16 -20 13 -22z"/>
</g>
</svg>
