<?xml version="1.0" standalone="no"?>
<!DOCTYPE svg PUBLIC "-//W3C//DTD SVG 20010904//EN"
 "http://www.w3.org/TR/2001/REC-SVG-20010904/DTD/svg10.dtd">
<svg version="1.0" xmlns="http://www.w3.org/2000/svg"
 width="903.000000pt" height="837.000000pt" viewBox="0 0 903.000000 837.000000"
 preserveAspectRatio="xMidYMid meet">

<g transform="translate(0.000000,837.000000) scale(0.100000,-0.100000)"
fill="#000000" stroke="none">
<path d="M1964 8197 c-2 -7 -3 -71 -2 -142 l3 -130 135 -12 c449 -39 632 -164
704 -483 35 -151 36 -228 36 -1763 l0 -1529 34 -41 c35 -44 66 -107 66 -136
-1 -14 -2 -14 -11 1 -14 24 -87 73 -129 86 -50 15 -341 35 -352 24 -5 -5 1
-21 15 -38 14 -16 42 -59 62 -94 55 -96 90 -128 160 -149 34 -11 82 -22 107
-26 38 -6 47 -12 52 -31 5 -19 13 -24 39 -24 74 -1 244 -114 291 -195 15 -26
25 -49 22 -52 -3 -3 -51 25 -106 63 -93 63 -105 68 -163 72 -38 2 -97 -4 -152
-16 -56 -12 -111 -18 -145 -15 -49 4 -58 2 -82 -21 -43 -39 -37 -96 12 -121
23 -12 31 -27 48 -97 11 -45 20 -83 19 -85 -7 -6 -165 144 -184 174 -12 20
-29 67 -39 106 -16 64 -16 70 0 79 25 14 48 67 42 94 -15 59 -105 69 -146 17
-25 -32 -26 -66 0 -101 11 -15 23 -47 26 -72 l7 -44 -61 49 c-33 28 -131 107
-217 178 -85 70 -164 132 -174 139 -14 9 -19 23 -18 54 0 54 -22 89 -68 104
-71 23 -135 -22 -135 -96 0 -29 8 -44 40 -76 38 -38 43 -40 87 -35 47 5 48 5
140 -75 51 -44 93 -81 93 -83 0 -9 -117 9 -130 21 -32 27 -69 35 -103 20 -46
-19 -71 -51 -71 -91 0 -100 152 -129 191 -37 14 35 14 35 66 28 29 -3 70 -6
93 -6 37 0 51 -9 155 -96 63 -53 139 -118 169 -144 30 -26 66 -57 80 -68 14
-11 23 -22 20 -25 -3 -2 -40 0 -82 6 -71 9 -78 12 -89 39 -22 54 -81 64 -136
22 -41 -31 -53 -59 -42 -96 6 -24 5 -28 -12 -28 -17 0 -206 38 -271 55 -38 10
-45 -14 -20 -67 12 -24 36 -79 55 -123 51 -122 115 -224 178 -286 125 -121
306 -177 428 -134 31 10 41 11 41 2 0 -7 -18 -75 -41 -152 -49 -168 -58 -244
-35 -298 18 -44 11 -67 -28 -92 -38 -25 -50 -66 -32 -108 l15 -36 -48 6 c-109
13 -254 -44 -389 -152 -100 -81 -141 -132 -183 -233 -33 -80 -127 -438 -117
-448 4 -3 102 -6 220 -7 196 -2 219 0 293 21 98 28 174 69 256 134 61 50 62
50 56 22 -15 -79 -18 -158 -8 -243 25 -201 70 -277 319 -535 l95 -98 18 23
c10 13 19 29 19 35 0 5 21 35 47 65 53 62 108 145 129 195 l14 34 304 0 303 0
32 -127 c18 -71 39 -149 47 -175 19 -62 18 -65 -11 -100 -29 -34 -32 -66 -10
-108 29 -55 83 -74 139 -49 27 12 56 63 56 97 0 49 -45 112 -80 112 -12 0 -22
28 -43 122 -14 67 -24 124 -22 126 10 10 81 -65 92 -97 17 -50 46 -71 100 -71
58 0 93 32 93 87 -1 80 -81 127 -150 86 -28 -16 -28 -16 -89 38 l-62 54 1173
3 c645 1 1192 0 1214 -3 100 -14 169 -95 181 -210 l6 -55 138 0 c122 0 138 2
143 18 5 16 496 2371 496 2379 0 2 -95 2 -212 1 l-212 -3 -22 -105 c-92 -440
-259 -815 -481 -1082 -258 -311 -622 -519 -1049 -602 -205 -39 -320 -46 -780
-46 l-434 0 11 27 c24 63 -24 125 -93 121 -37 -2 -44 3 -107 69 -90 95 -141
192 -157 303 l-13 84 53 56 c29 31 56 66 60 78 9 28 22 28 40 0 12 -18 13 -32
5 -68 -17 -70 -6 -178 23 -241 14 -30 51 -83 84 -118 123 -134 253 -189 469
-200 189 -9 350 0 349 19 -1 8 -35 61 -77 117 -42 55 -92 126 -111 156 l-36
55 4 214 c5 290 5 289 -103 388 -48 44 -102 91 -121 105 -76 56 46 8 148 -58
37 -24 89 -64 115 -88 48 -44 48 -44 73 -168 30 -146 48 -199 103 -290 53 -89
106 -136 173 -154 94 -25 137 -34 142 -30 2 3 -2 28 -9 56 -7 29 -18 97 -23
152 -6 60 -19 120 -31 148 -25 57 -120 160 -198 214 -30 21 -50 39 -45 41 12
4 169 -56 230 -87 51 -26 65 -46 96 -139 61 -179 124 -260 235 -303 98 -39
278 -26 346 25 19 14 19 16 4 42 -47 78 -151 216 -204 269 -67 68 -98 81 -215
90 -98 8 -199 25 -205 36 -3 4 61 7 142 5 170 -3 172 -4 354 -122 140 -91 189
-108 314 -107 86 0 110 4 167 27 86 36 147 87 132 112 -12 20 -82 46 -204 75
-111 27 -332 30 -400 6 -25 -9 -54 -17 -65 -17 -20 1 -62 26 -54 34 55 49 381
88 557 66 88 -11 107 -10 158 5 73 21 137 59 234 140 73 61 137 130 175 188
l18 28 -24 -5 c-13 -3 -91 -10 -174 -16 -219 -16 -350 -36 -410 -64 -50 -23
-63 -35 -138 -136 -60 -82 -110 -103 -322 -139 -66 -12 -134 -25 -151 -30 -17
-5 -60 -12 -95 -16 -82 -9 -69 5 31 35 104 30 198 82 252 138 45 46 193 250
186 257 -2 2 -35 -5 -73 -16 -39 -11 -101 -19 -142 -19 -91 0 -167 -16 -218
-45 -22 -13 -80 -65 -130 -116 -158 -163 -174 -178 -201 -185 -31 -8 -149 18
-209 46 l-40 19 46 0 c75 1 161 21 212 49 92 49 229 228 262 341 7 22 5 23
-16 17 -13 -4 -87 -21 -164 -37 -160 -35 -275 -79 -322 -123 -18 -18 -49 -70
-72 -121 -24 -54 -47 -91 -57 -93 -9 -2 -60 19 -113 47 -53 27 -146 67 -206
87 -138 46 -206 76 -225 99 -14 16 -12 17 30 10 25 -3 77 -14 115 -22 98 -22
213 -27 292 -14 102 17 181 60 278 153 97 91 189 203 180 217 -3 6 -23 4 -53
-4 -61 -19 -59 -20 -67 14 -13 62 -89 80 -133 32 -24 -27 -35 -30 -112 -36
-58 -5 -82 -4 -75 3 39 40 164 136 194 148 47 21 191 32 191 15 0 -7 11 -23
25 -36 33 -34 77 -33 104 1 32 41 24 99 -18 131 -22 17 -76 16 -91 -2 -8 -10
-30 -15 -64 -15 l-51 0 56 53 c30 28 71 66 90 82 19 17 93 86 166 153 l131
122 46 -6 c56 -8 91 12 112 63 29 69 -13 138 -85 138 -69 0 -125 -57 -123
-125 1 -30 -3 -41 -22 -54 -14 -8 -55 -42 -92 -75 -37 -34 -69 -59 -71 -57 -2
1 0 24 3 49 5 32 16 56 35 77 36 37 45 72 29 111 -39 93 -149 89 -180 -7 -15
-46 1 -89 42 -110 23 -12 29 -20 24 -37 -3 -12 -13 -54 -22 -94 -18 -81 -10
-71 -224 -256 -147 -127 -186 -157 -178 -136 3 7 13 44 23 82 13 48 23 67 34
67 25 0 61 29 72 57 10 27 -15 97 -44 121 -23 19 -72 18 -102 -2 -15 -10 -28
-16 -29 -14 -114 206 -366 336 -577 298 -63 -12 -169 -55 -169 -69 0 -4 38
-12 83 -19 276 -40 496 -192 613 -424 29 -58 32 -71 23 -95 -11 -28 -12 -28
-23 22 -7 28 -20 64 -28 80 -20 38 -78 97 -91 92 -5 -1 -22 -36 -37 -77 -15
-41 -37 -96 -48 -122 -20 -45 -23 -47 -48 -38 -118 45 -256 208 -281 332 -3
15 -10 31 -15 34 -15 9 -48 -26 -75 -80 -62 -123 -6 -254 137 -320 63 -30 115
-32 189 -10 29 8 54 14 56 12 8 -8 -83 -129 -143 -190 l-66 -68 42 0 c23 0 42
-2 42 -5 0 -3 -16 -22 -36 -42 l-36 -36 -67 12 c-36 7 -88 25 -116 40 -96 55
-135 49 -135 -19 0 -25 7 -43 21 -56 25 -22 49 -66 49 -89 0 -9 -11 -40 -24
-69 -28 -61 -41 -109 -51 -181 -10 -79 -34 -141 -66 -173 -36 -35 -132 -69
-222 -78 l-65 -7 -5 -41 c-8 -55 -35 -76 -99 -76 -62 0 -80 -10 -118 -65 -42
-61 -102 -95 -170 -95 l-53 0 7 -31 c21 -106 26 -212 16 -329 -6 -69 -13 -177
-16 -240 -7 -119 -7 -115 42 -235 14 -36 -25 4 -49 49 -19 36 -22 57 -22 166
0 69 4 197 8 285 7 136 5 173 -10 245 l-18 85 -45 -4 c-37 -2 -74 -14 -123
-39 -4 -2 -2 9 4 25 6 15 16 54 24 85 12 53 12 60 -6 82 -35 45 -19 38 44 -19
64 -60 145 -105 185 -105 86 0 194 127 135 159 -10 5 -46 16 -80 25 -88 22
-158 60 -213 115 -65 65 -94 123 -93 186 3 197 11 284 32 350 27 86 39 222 22
254 -12 22 -11 22 26 15 51 -9 56 -15 44 -60 -5 -22 -14 -72 -20 -111 -6 -40
-23 -108 -36 -150 -28 -85 -26 -119 8 -151 32 -29 62 -35 103 -22 31 11 41 22
70 84 24 50 36 94 42 151 11 95 26 128 82 179 53 48 114 76 165 76 75 0 178
-80 258 -199 15 -23 34 -44 42 -47 39 -16 119 36 128 82 2 15 0 42 -5 61 -7
24 -6 39 1 46 6 6 11 34 11 62 0 75 26 220 54 303 45 132 127 253 217 319 47
36 48 38 27 45 -45 12 -175 8 -218 -7 -24 -8 -44 -14 -46 -12 -7 6 31 102 47
118 9 9 18 22 21 29 2 8 23 13 51 14 57 1 64 16 8 16 -22 0 -42 4 -45 9 -7 11
77 48 143 62 l50 11 4 1821 c4 1954 2 1888 53 2057 26 90 92 207 140 249 114
100 311 160 583 177 l111 7 0 143 0 144 -1425 0 c-1162 0 -1427 -2 -1431 -13z
m1213 -3919 c58 -64 103 -133 124 -194 28 -79 23 -95 -12 -38 -41 65 -128 154
-145 147 -20 -8 -44 -97 -51 -191 -3 -45 -9 -85 -14 -87 -12 -8 -22 110 -14
178 16 152 35 227 58 227 8 0 32 -19 54 -42z m-166 -429 c12 -34 14 -49 6 -47
-18 6 -50 76 -43 95 9 22 16 12 37 -48z m615 -45 c-3 -9 -6 -35 -6 -58 l0 -42
-90 -44 c-104 -51 -134 -78 -159 -145 l-18 -48 -7 37 c-11 57 11 142 47 182
18 21 70 55 126 84 109 54 115 56 107 34z m-510 -111 c-9 -9 -76 61 -76 79 0
7 19 -6 42 -29 23 -23 39 -46 34 -50z m543 -93 c1 -20 -1 -22 -9 -10 -5 8 -9
29 -9 45 0 26 2 27 9 10 5 -11 9 -31 9 -45z m-379 -196 c23 -52 40 -97 38
-100 -3 -2 -24 38 -48 88 -54 118 -56 123 -43 115 6 -4 30 -50 53 -103z m-515
16 c41 -28 75 -56 76 -63 0 -7 0 -42 0 -79 0 -37 4 -70 8 -72 4 -3 52 6 107
20 112 29 148 27 228 -11 74 -35 162 -108 170 -140 4 -15 5 -30 2 -32 -3 -3
-36 16 -75 41 -75 51 -159 81 -200 73 -14 -3 -66 -15 -115 -26 -60 -14 -93
-18 -101 -11 -7 5 -15 7 -18 3 -15 -15 -5 -64 24 -119 36 -69 24 -59 -66 56
-82 104 -115 168 -145 283 -22 84 -22 88 -5 107 10 11 22 20 27 20 5 0 42 -23
83 -50z m641 -229 c-12 -26 -16 -49 -11 -70 4 -19 3 -31 -3 -31 -15 0 -26 59
-14 73 6 7 13 29 17 50 5 27 11 35 18 28 7 -7 5 -22 -7 -50z m-993 4 c146 -22
221 -61 327 -173 85 -88 152 -166 158 -183 2 -5 -18 -32 -45 -59 -52 -54 -73
-59 -148 -36 -40 12 -40 12 -47 73 -13 122 -109 254 -219 302 -30 13 -61 27
-70 31 -9 5 -33 12 -53 15 -38 8 -43 14 -24 33 15 15 3 15 121 -3z m-405 -31
c50 -56 18 -47 -58 17 l-25 21 30 -7 c17 -3 40 -17 53 -31z m1482 -48 c-17
-70 -34 -70 -23 1 5 32 31 79 39 71 1 -2 -6 -34 -16 -72z m-1394 48 c23 -6 47
-43 69 -103 12 -36 12 -41 -1 -41 -29 0 -134 113 -134 145 0 7 39 6 66 -1z
m-141 -42 l50 -37 -33 -3 c-18 -2 -39 2 -47 8 -15 13 -38 70 -27 70 4 0 30
-17 57 -38z m292 4 c27 -27 89 -214 67 -205 -5 2 -33 19 -61 37 -39 25 -53 40
-53 56 0 13 -13 49 -29 80 l-28 57 46 -7 c25 -3 51 -11 58 -18z m103 -28 c57
-91 117 -248 96 -248 -13 0 -83 39 -93 52 -5 7 -16 36 -22 63 -7 28 -23 74
-37 104 -13 29 -24 55 -24 57 0 2 14 4 30 4 23 0 35 -7 50 -32z m83 -17 c54
-23 78 -60 106 -161 22 -80 26 -120 12 -120 -5 0 -25 7 -45 15 -26 11 -36 21
-36 38 -1 34 -46 155 -74 198 -38 57 -35 61 37 30z m-338 -62 c30 -23 55 -45
55 -49 0 -13 -67 -21 -120 -14 -54 7 -72 23 -85 77 -7 27 -7 27 44 27 45 0 59
-5 106 -41z m491 -94 c30 -52 47 -161 23 -153 -8 3 -23 40 -35 84 -11 43 -24
90 -28 103 -12 36 9 17 40 -34z m897 -30 c3 -30 17 -80 31 -112 29 -63 29 -74
-1 -40 -24 27 -66 171 -58 198 10 32 22 13 28 -46z m-1242 23 c32 -18 59 -38
59 -44 0 -12 -133 -44 -186 -44 -49 0 -68 13 -97 64 l-25 45 81 4 c45 1 88 4
95 5 7 1 40 -13 73 -30z m744 -5 l48 -27 -37 -13 c-21 -7 -42 -10 -47 -7 -14
9 -39 61 -32 68 10 10 18 7 68 -21z m413 -6 c13 -13 22 -32 22 -51 l0 -30 -27
26 c-16 14 -43 35 -62 47 -24 13 -30 22 -20 25 50 16 50 16 87 -17z m-252 -52
c-24 -18 -34 -18 -66 0 -24 14 -23 14 30 14 51 0 53 -1 36 -14z m-768 -21 l45
-27 -24 -12 c-13 -7 -59 -25 -102 -39 -93 -32 -121 -29 -166 18 l-32 33 23 7
c13 3 39 6 58 6 19 1 60 9 90 20 30 10 57 18 59 19 2 1 24 -11 49 -25z m117
-59 c31 -14 35 -18 24 -31 -7 -9 -35 -27 -63 -41 -61 -31 -146 -34 -203 -7
l-37 18 45 12 c24 6 73 23 109 37 80 31 79 30 125 12z m98 -31 c16 -16 -97
-74 -142 -74 -16 0 36 36 94 64 34 17 39 18 48 10z m1363 -360 c33 -14 80 -35
106 -46 48 -22 168 -132 168 -155 0 -7 -14 -33 -32 -58 -43 -60 -49 -134 -18
-224 11 -35 19 -65 18 -67 -2 -2 -24 4 -48 12 -25 9 -78 17 -118 17 l-74 2 7
59 c3 32 15 86 25 120 41 130 23 224 -61 309 -32 31 -52 57 -44 57 7 0 39 -12
71 -26z m-106 -377 c0 -7 15 -43 34 -80 l33 -68 -40 -21 -40 -20 -25 25 -25
26 23 80 c12 44 27 78 31 75 5 -3 9 -11 9 -17z m-1241 -200 c8 -11 4 -21 -22
-43 -80 -74 -174 -135 -322 -213 -214 -112 -251 -136 -285 -185 -29 -43 -60
-74 -60 -61 0 4 12 30 28 58 34 64 104 116 265 198 152 77 235 131 312 203 33
30 63 55 66 56 4 0 12 -6 18 -13z m1496 3 c19 -7 18 -8 -5 -13 -52 -11 -176
-30 -200 -31 -39 -2 -37 29 2 41 39 13 175 15 203 3z m156 -64 c19 -16 40 -37
47 -48 13 -18 10 -18 -95 -12 -81 4 -122 2 -163 -10 l-55 -15 -37 37 c-21 20
-34 40 -30 44 17 17 148 37 223 35 67 -2 79 -5 110 -31z m-396 -60 c-3 -17 -8
-55 -12 -85 -5 -45 -8 -51 -14 -31 -9 33 -11 143 -2 166 11 29 36 -14 28 -50z
m108 -166 c4 -58 11 -120 16 -137 13 -43 1 -42 -42 6 -60 66 -71 97 -72 186 0
44 3 88 8 99 7 17 11 15 45 -15 l38 -34 7 -105z m399 111 c15 -17 28 -35 28
-39 0 -4 -26 -5 -57 -3 -32 2 -95 -2 -140 -9 l-82 -12 -46 33 c-78 56 -49 70
139 65 l129 -3 29 -32z m-792 -49 c0 -65 20 -52 -172 -115 -85 -28 -120 -46
-173 -88 -36 -28 -67 -50 -69 -48 -1 2 -20 35 -41 73 -30 56 -34 68 -19 61 11
-4 49 -10 87 -12 95 -8 143 12 197 82 38 50 90 84 160 107 25 9 30 -1 30 -60z
m464 -14 c41 -31 44 -37 50 -93 4 -33 18 -91 31 -130 13 -38 22 -72 20 -73 -2
-2 -17 -1 -34 3 -41 9 -81 42 -96 79 -14 34 -32 246 -21 246 4 0 26 -15 50
-32z m403 -37 c37 -54 32 -62 -37 -57 -33 2 -75 0 -94 -5 -30 -8 -39 -5 -95
32 -86 57 -70 68 104 65 l99 -1 23 -34z m-260 -63 c57 -39 64 -48 79 -98 8
-30 26 -75 40 -99 13 -24 24 -46 24 -48 0 -10 -116 11 -136 24 -27 17 -50 77
-69 177 -8 43 -15 80 -15 82 0 10 20 1 77 -38z m-652 -119 c-40 -105 -49 -119
-77 -119 -11 0 -33 -13 -49 -29 -23 -23 -29 -26 -29 -12 0 28 22 49 64 63 37
12 41 18 77 108 21 52 39 104 40 115 1 14 3 12 6 -6 2 -16 -11 -67 -32 -120z
m955 101 c17 -9 60 -69 60 -84 0 -3 -20 -6 -44 -6 -44 0 -186 61 -186 80 0 18
140 26 170 10z m-127 -89 c59 -33 72 -45 92 -89 l24 -52 -23 -6 c-13 -3 -40
-4 -61 -2 -36 3 -41 7 -71 63 -33 62 -52 125 -37 125 4 0 39 -18 76 -39z m226
-37 c53 -44 37 -55 -29 -20 -33 17 -60 34 -60 39 0 18 61 5 89 -19z m11 -95
c0 -11 -57 -21 -78 -15 -15 5 -52 63 -52 81 0 3 29 -10 65 -27 36 -18 65 -35
65 -39z m-985 -216 c-29 -54 -29 -49 0 20 11 26 21 43 23 38 2 -5 -9 -31 -23
-58z m-65 -62 c-34 -8 -55 -22 -68 -46 -10 -17 -11 -18 -12 -2 0 28 37 57 73
56 29 -1 30 -2 7 -8z"/>
<path d="M3955 3255 c-24 -24 -32 -60 -17 -81 4 -5 41 -15 82 -21 88 -12 110
-1 110 53 0 46 -38 74 -102 74 -39 0 -54 -5 -73 -25z"/>
<path d="M4195 3147 c-146 -89 -202 -135 -192 -161 3 -8 20 -22 37 -31 25 -13
38 -14 64 -5 63 21 126 110 126 180 0 33 -5 35 -35 17z"/>
<path d="M3685 2913 c-4 -10 -10 -68 -13 -130 -4 -101 -3 -115 17 -146 58 -95
204 -88 316 15 50 46 67 79 47 92 -4 2 -43 9 -86 15 -106 15 -170 50 -216 118
-37 55 -53 64 -65 36z"/>
<path d="M3149 2666 c-100 -36 -159 -98 -167 -175 -4 -42 -1 -50 19 -65 35
-24 45 -20 79 29 75 109 210 67 210 -67 0 -41 8 -54 43 -67 34 -13 71 0 87 30
19 34 14 113 -10 159 -12 23 -41 61 -65 85 -71 71 -133 94 -196 71z"/>
<path d="M3143 2477 c-27 -15 -67 -66 -59 -74 13 -13 126 -16 141 -3 18 15 20
61 3 78 -15 15 -57 15 -85 -1z"/>
<path d="M3596 2443 c-4 -5 -35 -17 -68 -28 -58 -19 -62 -23 -76 -63 -10 -31
-25 -50 -52 -67 -29 -18 -39 -32 -44 -62 -26 -144 -56 -171 -204 -183 -104 -8
-183 -1 -219 18 -29 16 -60 57 -68 90 -5 26 -7 27 -82 27 -75 0 -77 0 -89 -30
-37 -87 6 -190 108 -256 70 -45 116 -59 286 -90 155 -28 175 -23 182 41 l5 45
82 17 c107 22 186 60 212 102 12 19 27 73 36 132 11 72 25 119 51 171 40 79
39 100 -5 126 -32 19 -44 21 -55 10z"/>
<path d="M2949 2333 c-58 -133 -63 -180 -23 -220 l26 -26 126 7 c204 11 232
25 240 120 6 78 -18 100 -117 110 -40 4 -105 18 -145 32 -39 13 -75 24 -79 24
-4 0 -17 -21 -28 -47z"/>
<path d="M2375 1114 c-79 -22 -171 -35 -295 -42 l-115 -7 0 -140 0 -140 298
-3 c163 -1 297 0 297 2 0 3 -11 21 -25 41 -36 53 -62 131 -75 223 -7 49 -17
82 -24 81 -6 0 -33 -7 -61 -15z"/>
</g>
</svg>
